<svg width="145" height="145" viewBox="0 0 145 145" fill="none" xmlns="http://www.w3.org/2000/svg">
<circle cx="72.5" cy="72.5" r="72.5" fill="#212121"/>
<path d="M85.728 81.56V91.544H108.48V81.56H85.728ZM79.2 34.904L74.4 44.696H102.048V34.904H79.2ZM63.648 62.072V115.544H74.112V62.072H63.648ZM80.16 63.416V115.64H90.336V73.784H103.392V115.064H114.048V63.416H80.16ZM85.728 99.608V109.976H108.576V99.608H85.728ZM40.032 26.552V59.48C40.032 76.088 38.688 94.04 26.496 107.48C28.896 109.208 32.544 113.048 34.08 115.544C48.672 99.992 50.304 79.16 50.304 59.48V26.552H40.032ZM29.952 45.848C30.048 54.2 28.896 64.184 25.92 69.56L33.504 72.824C36.768 66.2 37.92 55.736 37.536 46.712L29.952 45.848ZM55.488 41.336C54.336 47.48 51.744 56.12 49.728 61.592L56.352 64.472C58.848 59.48 61.824 51.416 64.704 44.696L55.488 41.336ZM48.576 78.296L41.472 83.672C45.024 88.856 51.84 99.896 54.816 106.136L62.688 98.168C60.576 95.192 51.264 81.368 48.576 78.296ZM77.952 25.592C74.688 38.36 68.16 50.168 59.616 57.368C62.304 58.808 67.104 62.072 69.216 63.992C77.664 55.64 84.96 42.392 89.088 27.896L77.952 25.592ZM98.976 34.904V37.112C97.152 43.064 93.024 52.088 88.896 57.848C91.296 59.192 94.944 61.496 97.056 63.128C102.144 56.792 107.52 46.904 110.496 38.744L103.104 34.52L101.28 34.904H98.976Z" fill="#B11E0A"/>
</svg>
